<svg width="1037" height="1045" viewBox="0 0 1037 1045" fill="none" xmlns="http://www.w3.org/2000/svg">
<path d="M1036.68 1045C824.817 1035.16 613.298 1025.68 518.516 904.847C423.733 784.013 445.687 552.182 378.781 382.874C311.876 213.566 156.112 106.783 0 0H1036.68V1045Z" fill="#FFDED5"/>
<path d="M1036.68 783.662C877.783 776.286 719.232 769.26 648.145 678.635C576.71 588.01 593.436 414.136 543.257 287.331C493.078 160.175 376.342 80.0874 259.258 0H1036.68V783.662Z" fill="#FE9A85"/>
<path d="M1036.68 522.324C930.75 517.758 824.816 512.84 777.425 452.424C730.034 392.007 741.185 276.091 707.732 191.437C674.28 106.783 596.223 53.3916 518.516 0H1036.68V522.324Z" fill="#EB513B"/>
<path d="M1036.68 261.338C983.716 258.879 930.75 256.42 907.054 226.212C883.358 196.003 888.934 138.045 872.208 95.8941C855.481 53.3916 816.453 26.6958 777.425 0H1036.68V261.338Z" fill="#DE1616"/>
</svg>
