<svg width="286" height="603" viewBox="0 0 286 603" fill="none" xmlns="http://www.w3.org/2000/svg">
<path d="M286 -102L286 798L246 798L246 1050L37.0001 1050L36.7999 1033.3C36.6999 1016.7 36.3001 983.3 49.0001 950C61.7001 916.7 87.3001 883.3 102.5 850C110.404 832.684 115.438 815.342 115.768 798L95.0001 798L80.2999 781.3C65.6998 764.7 36.2999 731.3 45.2999 698C46.6669 692.942 48.9211 687.882 51.7803 682.82C44.5054 671.874 39.3207 660.932 38.5 650C36.0001 616.7 73.9998 583.3 75.2998 550C75.8525 536.855 70.6691 523.695 63.5606 510.531C60.2681 506.353 57.047 502.175 54 498C29.7 464.7 16.2998 431.3 13.7998 398C11.2998 364.7 19.7002 331.3 24.7002 298C29.7002 264.7 31.3 231.3 27 198C22.7 164.7 12.3 131.3 25 98C37.7 64.7 73.3 31.3 73 -2C72.7 -35.2999 36.3003 -68.6998 18.2002 -85.2998L1.06796e-05 -102L286 -102Z" fill="#3B2E2E"/>
</svg>
