<svg width="754" height="249" viewBox="0 0 754 249" fill="none" xmlns="http://www.w3.org/2000/svg">
<g clip-path="url(#clip0_85_428)">
<path d="M-381.3 31.5469C-364.7 31.4599 -331.3 31.1124 -298 42.1533C-264.7 53.1943 -231.3 75.4496 -198 88.6641C-180.684 95.5354 -163.342 99.9135 -146 100.2L-146 82.1445L-129.3 69.3642C-112.7 56.6714 -79.2999 31.1122 -46 38.9365C-40.9416 40.125 -35.8816 42.0853 -30.8193 44.5713C-19.8734 38.2468 -8.9315 33.7379 1.99999 33.0244C35.3 30.851 68.7 63.8874 102 65.0176C115.144 65.498 128.303 60.9935 141.466 54.8144C145.645 51.9512 149.823 49.1497 154 46.5C187.3 25.3743 220.7 13.7252 254 11.5517C287.3 9.37831 320.7 16.6805 354 21.0273C387.3 25.3742 420.7 26.7656 454 23.0273C487.3 19.289 520.7 10.2471 554 21.288C587.3 32.329 620.7 63.2783 654 63.0175C687.3 62.7567 720.7 31.1126 737.3 15.3769L754 -0.446339L754 248.193L-146 248.193L-146 213.419L-398 213.419L-398 31.7207L-381.3 31.5469Z" fill="#3B2E2E"/>
</g>
<defs>
<clipPath id="clip0_85_428">
<rect width="754" height="249" fill="white"/>
</clipPath>
</defs>
</svg>
